<svg version="1" xmlns="http://www.w3.org/2000/svg" width="400" height="400" viewBox="0 0 300.000000 300.000000"><path d="M147.2 57.3c-1.2.6-2.4 1.7-2.6 2.6-.5 1.6-2 13.4-3.1 24.1-.3 3-.7 6.6-1 8-.2 1.4-.7 5.9-1 10-.4 4.1-.8 8.2-1 9-.2.8-.6 4.6-1 8.5-.3 3.8-.7 8.6-1 10.5-.2 1.9-.7 6-1 9-.3 3-1 8.9-1.5 13s-1.1 10-1.5 13c-.3 3-.8 7.5-1.1 10-.3 2.5-.7 5.8-.8 7.5-1.4 15.1-1.9 19.5-2.5 19.5-.3 0-3.7-11.1-7.5-24.8-8.4-30.1-9.1-32-12.1-32.8-5.6-1.4-5.7-1.2-19.1 24.3-4.3 8.3-8 15-8.2 14.9-.1-.2-1.8-6.5-3.8-14.2-1.9-7.6-4.3-14.7-5.1-15.6-1.5-1.6-4.2-1.8-30-1.8-27 0-28.4.1-30.3 2-2.6 2.6-2.5 6.2.1 8.6 1.9 1.7 4 1.9 26.5 1.9H63l1 3c.5 1.6 2.8 10.6 5.1 20 2.2 9.3 4.8 17.8 5.7 18.7 2.2 2.6 6.7 2.3 8.9-.6 1-1.3 6.1-10.5 11.3-20.4l9.5-18.1 1.2 3.7c.6 2 5.3 18.4 10.3 36.4 5.1 18 9.8 33.5 10.5 34.4 1.7 2.4 7.2 2.3 8.9-.2 1.3-1.7 1.9-4.5 3.1-15.4.2-1.9.7-5.8 1-8.5.3-2.8.8-7.3 1-10 .8-8.1 1.5-14.8 2-17.5.2-1.4.7-5.4 1-9 .3-3.6.7-7.6.9-9 .3-1.4.7-5.7 1.1-9.5.3-3.9.8-8.4 1-10 .2-1.7.7-5.7 1.1-9 .3-3.3.7-7.1.9-8.5.2-1.4.7-6 1.1-10.3.6-7.2 1.4-9.1 2.1-4.9.9 5.8 4.4 31.5 4.8 35.7.8 6.6 1.5 8.7 3.4 10.2 1.1.9 7.8 1.2 23.2 1.3 19.7 0 21.7-.2 23.2-1.8 2.3-2.5 2.1-6.5-.3-8.7-1.7-1.5-4.1-1.7-19.3-1.8h-17.4l-1.2-8.6c-.7-4.7-1.5-9.8-1.7-11.2-.2-1.4-.6-4.3-.9-6.5-.2-2.1-.7-5.5-1-7.4-.3-1.9-.7-4.9-.9-6.5-.8-5.8-2.7-20-3.1-22.5-.3-1.4-.7-4.5-1-7-.3-2.5-.7-5.4-.9-6.5-.2-1.1-.7-4.9-1.1-8.5-1.3-11.6-4.3-15.3-10.3-12.7zM222.2 154.8c-3.4.3-4.5.8-5.6 3-.7 1.5-1.2 3.6-1 4.7.6 3.8 3.2 4.5 15.9 4.5 10.3 0 12.4-.3 13.8-1.8 3-3.4 2.1-8.8-1.7-9.8-2.8-.7-15.4-1-21.4-.6zM261.2 155.2c-3.5.9-5.3 4.4-4 7.8.5 1.3 1.4 2.8 2.1 3.2.7.4 7.1.8 14.4.8 12.5 0 13.3-.1 14.7-2.2 2.1-2.9 2-5.1-.2-7.8-1.6-2-2.7-2.2-13-2.3-6.1-.1-12.5.1-14 .5z"/></svg>